<mxfile host="app.diagrams.net" agent="Mozilla/5.0 (Macintosh; Intel Mac OS X 10_15_7) AppleWebKit/537.36 (KHTML, like Gecko) Chrome/139.0.0.0 Safari/537.36" version="28.1.0">
  <diagram name="Page-1" id="qUjjeIQ0DExj5NyA2KU4">
    <mxGraphModel dx="1722" dy="938" grid="1" gridSize="10" guides="1" tooltips="1" connect="1" arrows="1" fold="1" page="1" pageScale="1" pageWidth="827" pageHeight="1169" math="0" shadow="0">
      <root>
        <mxCell id="0" />
        <mxCell id="1" parent="0" />
        <mxCell id="TD6bPUp1XabTYKKyts6r-2" value="" style="rounded=0;whiteSpace=wrap;html=1;" vertex="1" parent="1">
          <mxGeometry x="10" y="260" width="70" height="380" as="geometry" />
        </mxCell>
        <mxCell id="TD6bPUp1XabTYKKyts6r-3" value="" style="rounded=0;whiteSpace=wrap;html=1;strokeOpacity=100;" vertex="1" parent="1">
          <mxGeometry x="410" y="260" width="380" height="380" as="geometry" />
        </mxCell>
        <mxCell id="TD6bPUp1XabTYKKyts6r-4" style="edgeStyle=orthogonalEdgeStyle;rounded=0;orthogonalLoop=1;jettySize=auto;html=1;exitX=1.008;exitY=0.097;exitDx=0;exitDy=0;exitPerimeter=0;" edge="1" parent="1" source="TD6bPUp1XabTYKKyts6r-2" target="TD6bPUp1XabTYKKyts6r-10">
          <mxGeometry relative="1" as="geometry">
            <mxPoint x="140" y="300" as="sourcePoint" />
            <Array as="points">
              <mxPoint x="81" y="300" />
            </Array>
          </mxGeometry>
        </mxCell>
        <mxCell id="TD6bPUp1XabTYKKyts6r-8" value="&lt;b&gt;createEmptyCart&lt;/b&gt;" style="text;html=1;align=center;verticalAlign=middle;resizable=0;points=[];autosize=1;strokeColor=none;fillColor=none;" vertex="1" parent="1">
          <mxGeometry x="220" y="280" width="120" height="30" as="geometry" />
        </mxCell>
        <mxCell id="TD6bPUp1XabTYKKyts6r-11" style="edgeStyle=orthogonalEdgeStyle;rounded=0;orthogonalLoop=1;jettySize=auto;html=1;exitX=0;exitY=1;exitDx=0;exitDy=0;" edge="1" parent="1" source="TD6bPUp1XabTYKKyts6r-10" target="TD6bPUp1XabTYKKyts6r-2">
          <mxGeometry relative="1" as="geometry">
            <Array as="points">
              <mxPoint x="420" y="310" />
            </Array>
          </mxGeometry>
        </mxCell>
        <mxCell id="TD6bPUp1XabTYKKyts6r-10" value="&lt;b style=&quot;text-wrap-mode: nowrap;&quot;&gt;createEmptyCart( )&lt;/b&gt;" style="shape=parallelogram;perimeter=parallelogramPerimeter;whiteSpace=wrap;html=1;fixedSize=1;" vertex="1" parent="1">
          <mxGeometry x="420" y="280" width="200" height="40" as="geometry" />
        </mxCell>
        <mxCell id="TD6bPUp1XabTYKKyts6r-12" value="return value:&amp;nbsp; creatEmptyCart // cartId&amp;nbsp;" style="text;html=1;align=center;verticalAlign=middle;resizable=0;points=[];autosize=1;strokeColor=none;fillColor=none;" vertex="1" parent="1">
          <mxGeometry x="150" y="300" width="230" height="30" as="geometry" />
        </mxCell>
        <mxCell id="TD6bPUp1XabTYKKyts6r-13" value="FE" style="text;html=1;align=center;verticalAlign=middle;resizable=0;points=[];autosize=1;strokeColor=none;fillColor=none;" vertex="1" parent="1">
          <mxGeometry x="15" y="230" width="40" height="30" as="geometry" />
        </mxCell>
        <mxCell id="TD6bPUp1XabTYKKyts6r-14" value="BE" style="text;html=1;align=center;verticalAlign=middle;resizable=0;points=[];autosize=1;strokeColor=none;fillColor=none;" vertex="1" parent="1">
          <mxGeometry x="560" y="228" width="40" height="30" as="geometry" />
        </mxCell>
        <mxCell id="TD6bPUp1XabTYKKyts6r-15" value="db" style="shape=cylinder3;whiteSpace=wrap;html=1;boundedLbl=1;backgroundOutline=1;size=15;" vertex="1" parent="1">
          <mxGeometry x="730" y="260" width="60" height="380" as="geometry" />
        </mxCell>
        <mxCell id="TD6bPUp1XabTYKKyts6r-19" value="cartId" style="text;html=1;align=center;verticalAlign=middle;whiteSpace=wrap;rounded=0;" vertex="1" parent="1">
          <mxGeometry x="640" y="280" width="60" height="30" as="geometry" />
        </mxCell>
        <mxCell id="TD6bPUp1XabTYKKyts6r-42" style="edgeStyle=orthogonalEdgeStyle;rounded=0;orthogonalLoop=1;jettySize=auto;html=1;entryX=1;entryY=0.25;entryDx=0;entryDy=0;" edge="1" parent="1" source="TD6bPUp1XabTYKKyts6r-20" target="TD6bPUp1XabTYKKyts6r-2">
          <mxGeometry relative="1" as="geometry" />
        </mxCell>
        <mxCell id="TD6bPUp1XabTYKKyts6r-20" value="&lt;span style=&quot;color: rgb(29, 28, 29); font-family: Monaco, Menlo, Consolas, &amp;quot;Courier New&amp;quot;, monospace; font-variant-ligatures: none; text-align: left; white-space-collapse: preserve; background-color: rgba(29, 28, 29, 0.04);&quot;&gt;expressInit(&lt;/span&gt;&lt;span style=&quot;color: rgb(29, 28, 29); font-family: Monaco, Menlo, Consolas, &amp;quot;Courier New&amp;quot;, monospace; font-variant-ligatures: none; text-align: left; white-space-collapse: preserve; background-color: rgba(29, 28, 29, 0.04);&quot;&gt;productCartParams, cartId,&lt;/span&gt;&lt;span style=&quot;color: rgb(29, 28, 29); font-family: Monaco, Menlo, Consolas, &amp;quot;Courier New&amp;quot;, monospace; font-variant-ligatures: none; text-align: left; white-space-collapse: preserve; background-color: rgba(29, 28, 29, 0.04);&quot;&gt;)&lt;/span&gt;" style="shape=parallelogram;perimeter=parallelogramPerimeter;whiteSpace=wrap;html=1;fixedSize=1;" vertex="1" parent="1">
          <mxGeometry x="430" y="330" width="230" height="50" as="geometry" />
        </mxCell>
        <mxCell id="TD6bPUp1XabTYKKyts6r-22" value="" style="shape=cylinder3;whiteSpace=wrap;html=1;boundedLbl=1;backgroundOutline=1;size=15;" vertex="1" parent="1">
          <mxGeometry x="10" y="260" width="40" height="380" as="geometry" />
        </mxCell>
        <mxCell id="TD6bPUp1XabTYKKyts6r-23" value="&lt;b&gt;cartId&lt;/b&gt;" style="text;html=1;align=center;verticalAlign=middle;whiteSpace=wrap;rounded=0;" vertex="1" parent="1">
          <mxGeometry y="310" width="60" height="30" as="geometry" />
        </mxCell>
        <mxCell id="TD6bPUp1XabTYKKyts6r-24" value="Browser Memory" style="text;html=1;align=center;verticalAlign=middle;whiteSpace=wrap;rounded=0;" vertex="1" parent="1">
          <mxGeometry y="600" width="60" height="30" as="geometry" />
        </mxCell>
        <mxCell id="TD6bPUp1XabTYKKyts6r-25" style="edgeStyle=orthogonalEdgeStyle;rounded=0;orthogonalLoop=1;jettySize=auto;html=1;entryX=0.05;entryY=0.104;entryDx=0;entryDy=0;entryPerimeter=0;" edge="1" parent="1" source="TD6bPUp1XabTYKKyts6r-10" target="TD6bPUp1XabTYKKyts6r-15">
          <mxGeometry relative="1" as="geometry" />
        </mxCell>
        <mxCell id="TD6bPUp1XabTYKKyts6r-31" value="" style="edgeStyle=none;orthogonalLoop=1;jettySize=auto;html=1;rounded=0;exitX=0.983;exitY=0.218;exitDx=0;exitDy=0;entryX=0;entryY=0.25;entryDx=0;entryDy=0;exitPerimeter=0;" edge="1" parent="1" source="TD6bPUp1XabTYKKyts6r-2" target="TD6bPUp1XabTYKKyts6r-20">
          <mxGeometry width="100" relative="1" as="geometry">
            <mxPoint x="80.00000000000023" y="373.99" as="sourcePoint" />
            <mxPoint x="429.5" y="370" as="targetPoint" />
            <Array as="points" />
          </mxGeometry>
        </mxCell>
        <mxCell id="TD6bPUp1XabTYKKyts6r-40" value="return value: methods_response&lt;br&gt;&lt;div&gt;// hard_code ATM.&lt;/div&gt;" style="text;html=1;align=center;verticalAlign=middle;resizable=0;points=[];autosize=1;strokeColor=none;fillColor=none;" vertex="1" parent="1">
          <mxGeometry x="145" y="350" width="200" height="40" as="geometry" />
        </mxCell>
        <mxCell id="TD6bPUp1XabTYKKyts6r-41" value="&lt;b&gt;expressInit(productCartParams, cartId)&lt;/b&gt;" style="text;html=1;align=center;verticalAlign=middle;resizable=0;points=[];autosize=1;strokeColor=none;fillColor=none;" vertex="1" parent="1">
          <mxGeometry x="130" y="320" width="250" height="30" as="geometry" />
        </mxCell>
        <mxCell id="TD6bPUp1XabTYKKyts6r-43" style="edgeStyle=orthogonalEdgeStyle;rounded=0;orthogonalLoop=1;jettySize=auto;html=1;entryX=0.05;entryY=0.251;entryDx=0;entryDy=0;entryPerimeter=0;" edge="1" parent="1" source="TD6bPUp1XabTYKKyts6r-20" target="TD6bPUp1XabTYKKyts6r-15">
          <mxGeometry relative="1" as="geometry" />
        </mxCell>
        <mxCell id="TD6bPUp1XabTYKKyts6r-46" value="" style="shape=parallelogram;perimeter=parallelogramPerimeter;whiteSpace=wrap;html=1;fixedSize=1;" vertex="1" parent="1">
          <mxGeometry x="414" y="390" width="226" height="40" as="geometry" />
        </mxCell>
        <mxCell id="TD6bPUp1XabTYKKyts6r-47" value="???" style="text;html=1;align=center;verticalAlign=middle;whiteSpace=wrap;rounded=0;" vertex="1" parent="1">
          <mxGeometry x="670" y="330" width="60" height="30" as="geometry" />
        </mxCell>
        <mxCell id="TD6bPUp1XabTYKKyts6r-51" value="&lt;b&gt;expressActivate&lt;/b&gt;" style="text;html=1;align=center;verticalAlign=middle;resizable=0;points=[];autosize=1;strokeColor=none;fillColor=none;" vertex="1" parent="1">
          <mxGeometry x="160" y="380" width="120" height="30" as="geometry" />
        </mxCell>
        <mxCell id="TD6bPUp1XabTYKKyts6r-50" style="edgeStyle=orthogonalEdgeStyle;rounded=0;orthogonalLoop=1;jettySize=auto;html=1;entryX=0;entryY=0.25;entryDx=0;entryDy=0;exitX=0.983;exitY=0.371;exitDx=0;exitDy=0;exitPerimeter=0;" edge="1" parent="1" source="TD6bPUp1XabTYKKyts6r-2" target="TD6bPUp1XabTYKKyts6r-46">
          <mxGeometry relative="1" as="geometry">
            <mxPoint x="82" y="401" as="sourcePoint" />
            <mxPoint x="428.09440677966086" y="408.0011864406781" as="targetPoint" />
          </mxGeometry>
        </mxCell>
      </root>
    </mxGraphModel>
  </diagram>
</mxfile>
